<svg xmlns="http://www.w3.org/2000/svg" viewBox="0 0 64 64">
  <rect width="64" height="64" rx="15" fill="#07150d"/>
  <rect x="2" y="2" width="60" height="60" rx="13" fill="none" stroke="#2f8f4e" stroke-width="2"/>

  <path d="M32 49V29M32 36 23 27M32 33l9-10M32 40l11-8M32 31l-5-8"
        fill="none" stroke="#f7fff9" stroke-width="4" stroke-linecap="round" stroke-linejoin="round"/>

  <g fill="#f7fff9">
    <circle cx="20" cy="23" r="5"/>
    <circle cx="27" cy="18" r="5.5"/>
    <circle cx="35" cy="17" r="6"/>
    <circle cx="43" cy="21" r="5.5"/>
    <circle cx="47" cy="29" r="5"/>
    <circle cx="17" cy="31" r="4.5"/>
  </g>

  <g fill="#51c878">
    <circle cx="24" cy="28" r="4.5"/>
    <circle cx="32" cy="24" r="5"/>
    <circle cx="40" cy="28" r="4.5"/>
  </g>

  <path d="M15 50c9 2 25 2 34-1" fill="none" stroke="#51c878" stroke-width="3" stroke-linecap="round"/>
</svg>
