<svg xmlns="http://www.w3.org/2000/svg" viewBox="0 0 64 64">
  <rect width="64" height="64" rx="12" fill="#07130d"/>
  <g fill="#fff">
    <path d="M48,9 47,10 46,10 44,12 42,12 42,14 41,15 40,14 40,13 39,12 38,12 38,13 37,14 37,16 39,18 39,19 38,20 36,20 35,21 34,20 34,19 35,18 35,16 34,15 35,14 35,12 34,12 33,11 35,9 35,7 34,7 33,8 31,5 30,5 30,7 31,8 30,9 27,9 27,10 28,11 27,12 26,12 25,11 25,12 28,14 26,16 26,17 25,18 24,17 24,16 22,16 21,15 21,14 20,14 19,15 17,13 17,12 16,11 15,11 15,12 14,13 13,13 13,14 14,14 17,16 16,17 15,17 15,19 14,20 12,17 11,18 9,16 7,16 8,19 7,20 6,20 6,21 5,22 4,22 7,25 7,26 6,27 7,28 8,28 9,27 10,28 13,28 13,27 14,26 16,28 17,28 18,29 17,30 17,34 16,35 14,33 14,31 13,30 13,31 12,32 10,30 9,30 9,32 7,35 5,32 4,32 4,33 1,35 2,36 4,36 5,37 4,38 4,39 7,39 7,38 8,37 10,39 7,42 6,42 6,43 8,43 9,44 9,46 10,46 12,44 13,45 13,46 14,45 15,45 15,44 16,43 17,44 17,45 18,45 20,43 21,43 23,45 22,46 22,47 23,48 23,51 22,52 22,53 20,55 19,55 18,56 16,56 15,57 17,57 18,56 19,56 20,57 19,58 22,58 23,57 27,57 28,58 30,58 31,57 34,57 35,58 39,58 38,57 35,57 34,56 33,56 29,52 29,51 28,50 28,43 33,38 34,38 35,37 36,37 37,38 37,39 38,39 39,40 42,38 44,40 46,40 46,38 45,38 44,37 45,36 46,36 47,35 48,36 48,38 50,38 50,37 51,36 52,37 53,36 54,36 54,35 53,34 54,33 56,33 56,32 55,32 54,31 53,32 52,31 52,29 51,29 49,32 48,31 46,33 47,34 46,35 40,35 39,34 39,33 40,32 41,32 42,33 44,33 44,32 46,30 46,28 44,28 42,26 43,25 43,24 42,23 44,21 45,22 45,23 47,23 47,22 46,21 47,20 49,20 50,19 50,18 47,18 46,17 48,15 47,14 47,13 48,12Z"/>
  </g>
  <g fill="#63bd4d">
    <path d="M30,43 30,50 31,51 31,52 33,54 34,54 36,56 38,56 39,57 47,57 48,56 52,56 53,55 55,55 56,54 57,54 58,53 59,53 61,51 61,50 58,53 57,53 56,54 54,54 53,55 42,55 41,54 39,54 38,55 37,54 36,54 32,50 32,49 31,48 31,43 32,42 32,41Z"/>
  </g>
</svg>
